<?xml version="1.0" encoding="utf-8"?>
<!-- Generator: Adobe Illustrator 14.0.0, SVG Export Plug-In  -->
<!DOCTYPE svg PUBLIC "-//W3C//DTD SVG 1.1//EN" "http://www.w3.org/Graphics/SVG/1.1/DTD/svg11.dtd" [
	<!ENTITY ns_flows "http://ns.adobe.com/Flows/1.0/">
]>
<svg version="1.1"
	 xmlns="http://www.w3.org/2000/svg" xmlns:xlink="http://www.w3.org/1999/xlink" xmlns:a="http://ns.adobe.com/AdobeSVGViewerExtensions/3.0/"
	 x="0px" y="0px" width="400px" height="400px" viewBox="-67 -23.001 400 400" enable-background="new -67 -23.001 400 400"
	 xml:space="preserve">
<defs>
</defs>
<polygon fill="#57A8FD" points="76.846,144.003 76.846,65.522 266.001,65.522 266.001,0 0,0 0,353.997 266.001,353.997 
	266.001,288.471 76.846,288.471 76.846,209.526 "/>
<path fill="#57A8FD" d="M205.293,170.608l-28.825-23.771c-1.73-1.428-3.987-2.219-6.329-2.219h-41.355
	c-5.199,0-9.414,3.828-9.414,8.544v47.204c0,4.719,4.215,8.547,9.414,8.547h41.355c2.318,0,4.555-0.777,6.281-2.18l28.821-23.438
	c1.99-1.609,3.127-3.916,3.135-6.332C208.386,174.545,207.269,172.233,205.293,170.608z"/>
</svg>
